<svg width="228" height="228" viewBox="0 0 228 228" fill="none" xmlns="http://www.w3.org/2000/svg">
<path d="M228 114C228 51.0395 176.96 0 114 0C51.0395 0 0 51.0395 0 114C0 176.96 51.0395 228 114 228C176.96 228 228 176.96 228 114Z" fill="#FFD34E"/>
<path d="M80.94 51.0596V73.0313H90.4786V55.9759C90.4786 55.4149 90.7015 54.8768 91.0981 54.4802C91.4948 54.0835 92.0328 53.8606 92.5938 53.8606H135.406C135.967 53.8606 136.505 54.0835 136.902 54.4802C137.299 54.8768 137.521 55.4149 137.521 55.9759V73.0313H146.196V51.0596C146.196 49.3365 145.512 47.6839 144.293 46.4655C143.075 45.247 141.422 44.5625 139.699 44.5625H87.4416C86.588 44.5619 85.7426 44.7295 84.9539 45.0558C84.1651 45.382 83.4483 45.8605 82.8445 46.4639C82.2408 47.0673 81.7618 47.7837 81.435 48.5722C81.1082 49.3608 80.94 50.206 80.94 51.0596Z" fill="#4B525F"/>
<path d="M180.574 67.3403H47.4258C43.2744 67.3403 39.9089 70.7058 39.9089 74.8572V175.921C39.9089 180.072 43.2744 183.438 47.4258 183.438H180.574C184.726 183.438 188.091 180.072 188.091 175.921V74.8572C188.091 70.7058 184.726 67.3403 180.574 67.3403Z" fill="#304269"/>
<path d="M96.0673 111.328C101.185 115.338 107.5 117.518 114.002 117.518C120.504 117.518 126.819 115.338 131.937 111.328L185.606 69.0234C184.27 67.8166 182.511 66.7969 180.574 66.7969H47.4258C45.4887 66.7969 43.7252 67.8077 42.3937 69.0234L96.0673 111.328Z" fill="#91BED4"/>
<path d="M119.567 103.324L117.932 101.69C116.072 99.8293 113.055 99.8293 111.194 101.69L109.56 103.324C107.699 105.185 107.699 108.202 109.56 110.063L111.194 111.697C113.055 113.558 116.072 113.558 117.932 111.697L119.567 110.063C121.427 108.202 121.427 105.185 119.567 103.324Z" fill="#EA6045"/>
</svg>
