<svg width="55" height="55" viewBox="0 0 55 55" fill="none" xmlns="http://www.w3.org/2000/svg">
<path d="M53.5 47.5625L39.5 33.5625C38.917 32.9795 38.208 32.6875 37.5 32.6875C37.247 32.6875 36.997 32.7385 36.75 32.8125L34.771 30.8335C37.104 27.6785 38.5 23.7895 38.5 19.5625C38.5 9.0675 29.995 0.5625 19.5 0.5625C9.005 0.5625 0.5 9.0675 0.5 19.5625C0.5 30.0575 9.005 38.5625 19.5 38.5625C23.726 38.5625 27.616 37.1665 30.771 34.8335L32.75 36.8125C32.468 37.7515 32.709 38.7715 33.5 39.5625L47.5 53.5625C48.083 54.1455 48.792 54.4375 49.5 54.4375C50.208 54.4375 50.917 54.1455 51.5 53.5625L53.5 51.5625C54.666 50.3965 54.666 48.7285 53.5 47.5625ZM19.5 37.5625C9.575 37.5625 1.5 29.4875 1.5 19.5625C1.5 9.6375 9.575 1.5625 19.5 1.5625C29.425 1.5625 37.5 9.6375 37.5 19.5625C37.5 29.4875 29.425 37.5625 19.5 37.5625ZM33.233 35.8815L31.58 34.2285C32.522 33.4515 33.389 32.5845 34.166 31.6425L35.819 33.2955C35.711 33.3795 35.602 33.4605 35.5 33.5625L33.5 35.5625C33.398 35.6645 33.317 35.7735 33.233 35.8815ZM52.793 50.8555L50.793 52.8555C50.413 53.2365 49.965 53.4375 49.5 53.4375C49.035 53.4375 48.587 53.2365 48.207 52.8555L34.207 38.8555C33.434 38.0825 33.434 37.0425 34.207 36.2695L36.207 34.2695C36.587 33.8885 37.035 33.6875 37.5 33.6875C37.965 33.6875 38.413 33.8885 38.793 34.2695L52.793 48.2695C53.566 49.0425 53.566 50.0825 52.793 50.8555Z" fill="#F5F5F5"/>
<path d="M29.046 10.0165C28.851 9.82149 28.534 9.82149 28.339 10.0165C28.144 10.2115 28.144 10.5285 28.339 10.7235C30.7 13.0845 32.001 16.2245 32 19.5645C31.999 22.9035 30.699 26.0415 28.339 28.4015C23.465 33.2745 15.536 33.2745 10.661 28.4015C10.466 28.2065 10.149 28.2065 9.95399 28.4015C9.75899 28.5965 9.75899 28.9135 9.95399 29.1085C12.586 31.7405 16.043 33.0555 19.5 33.0555C22.957 33.0555 26.414 31.7405 29.046 29.1085C31.595 26.5595 32.999 23.1705 33 19.5645C33 15.9585 31.597 12.5665 29.046 10.0165Z" fill="#F5F5F5"/>
<path d="M19.5 3.5625C10.678 3.5625 3.5 10.7405 3.5 19.5625C3.5 28.3845 10.678 35.5625 19.5 35.5625C28.322 35.5625 35.5 28.3845 35.5 19.5625C35.5 10.7405 28.322 3.5625 19.5 3.5625ZM19.5 34.5625C11.216 34.5625 4.5 27.8465 4.5 19.5625C4.5 11.2785 11.216 4.5625 19.5 4.5625C27.784 4.5625 34.5 11.2785 34.5 19.5625C34.5 27.8465 27.784 34.5625 19.5 34.5625Z" fill="#F5F5F5"/>
</svg>
