<svg width="36" height="35" viewBox="0 0 36 35" fill="none" xmlns="http://www.w3.org/2000/svg">
<path d="M23.42 13.42H12.58C10.8779 13.3537 9.26769 12.6309 8.08693 11.4032C6.90618 10.1755 6.24664 8.53834 6.24664 6.835C6.24664 5.13166 6.90618 3.49448 8.08693 2.26681C9.26769 1.03914 10.8779 0.31634 12.58 0.25H23.42C25.122 0.31634 26.7323 1.03914 27.913 2.26681C29.0938 3.49448 29.7533 5.13166 29.7533 6.835C29.7533 8.53834 29.0938 10.1755 27.913 11.4032C26.7323 12.6309 25.122 13.3537 23.42 13.42ZM12.58 2.75C11.5315 2.80189 10.5432 3.25492 9.81947 4.01532C9.09578 4.77572 8.69216 5.78527 8.69216 6.835C8.69216 7.88473 9.09578 8.89428 9.81947 9.65468C10.5432 10.4151 11.5315 10.8681 12.58 10.92H23.42C24.4684 10.8681 25.4568 10.4151 26.1805 9.65468C26.9042 8.89428 27.3078 7.88473 27.3078 6.835C27.3078 5.78527 26.9042 4.77572 26.1805 4.01532C25.4568 3.25492 24.4684 2.80189 23.42 2.75H12.58Z" fill="#F5F5F5"/>
<path d="M17.92 24.08H12.58C10.8349 24.08 9.16123 23.3868 7.92724 22.1528C6.69325 20.9188 6 19.2452 6 17.5C6 15.7549 6.69325 14.0813 7.92724 12.8473C9.16123 11.6133 10.8349 10.92 12.58 10.92C12.9115 10.92 13.2295 11.0517 13.4639 11.2862C13.6983 11.5206 13.83 11.8385 13.83 12.17C13.83 12.5016 13.6983 12.8195 13.4639 13.0539C13.2295 13.2883 12.9115 13.42 12.58 13.42C11.4979 13.42 10.4602 13.8499 9.695 14.615C8.92986 15.3802 8.5 16.418 8.5 17.5C8.5 18.5821 8.92986 19.6199 9.695 20.385C10.4602 21.1502 11.4979 21.58 12.58 21.58H16.67V12.17C16.67 11.8385 16.8017 11.5206 17.0361 11.2862C17.2705 11.0517 17.5885 10.92 17.92 10.92C18.2515 10.92 18.5695 11.0517 18.8039 11.2862C19.0383 11.5206 19.17 11.8385 19.17 12.17V22.83C19.17 23.1616 19.0383 23.4795 18.8039 23.7139C18.5695 23.9483 18.2515 24.08 17.92 24.08Z" fill="#F5F5F5"/>
<path d="M12.66 34.75C11.7737 34.7845 10.8895 34.6398 10.0604 34.3244C9.23135 34.009 8.47448 33.5295 7.83517 32.9147C7.19585 32.2998 6.68725 31.5622 6.33984 30.746C5.99243 29.9299 5.81335 29.052 5.81335 28.165C5.81335 27.2779 5.99243 26.4 6.33984 25.5839C6.68725 24.7677 7.19585 24.0301 7.83517 23.4152C8.47448 22.8004 9.23135 22.3209 10.0604 22.0055C10.8895 21.6901 11.7737 21.5454 12.66 21.58C12.9915 21.58 13.3095 21.7116 13.5439 21.9461C13.7783 22.1805 13.91 22.4984 13.91 22.83C13.91 23.1615 13.7783 23.4794 13.5439 23.7138C13.3095 23.9483 12.9915 24.08 12.66 24.08C11.8507 24.078 11.0589 24.3162 10.385 24.7644C9.7111 25.2126 9.18532 25.8507 8.87423 26.5978C8.56313 27.345 8.48071 28.1677 8.63739 28.9617C8.79407 29.7558 9.18281 30.4855 9.75441 31.0585C10.326 31.6315 11.0548 32.022 11.8484 32.1806C12.6421 32.3392 13.4649 32.2588 14.2129 31.9496C14.9608 31.6403 15.6002 31.1161 16.05 30.4433C16.4999 29.7705 16.74 28.9793 16.74 28.17V22.83C16.74 22.4984 16.8717 22.1805 17.1061 21.9461C17.3406 21.7116 17.6585 21.58 17.99 21.58C18.3215 21.58 18.6395 21.7116 18.8739 21.9461C19.1083 22.1805 19.24 22.4984 19.24 22.83V28.17C19.2374 29.9143 18.5433 31.5864 17.3099 32.8198C16.0764 34.0532 14.4043 34.7473 12.66 34.75Z" fill="#F5F5F5"/>
<path d="M23.33 24.25C22.0108 24.25 20.7212 23.8588 19.6243 23.1259C18.5274 22.393 17.6725 21.3513 17.1677 20.1325C16.6629 18.9138 16.5308 17.5726 16.7881 16.2788C17.0455 14.9849 17.6808 13.7965 18.6136 12.8636C19.5464 11.9308 20.7349 11.2956 22.0287 11.0382C23.3226 10.7808 24.6637 10.9129 25.8825 11.4178C27.1013 11.9226 28.143 12.7775 28.8759 13.8744C29.6088 14.9713 30 16.2608 30 17.58C30 18.456 29.8275 19.3233 29.4923 20.1325C29.1571 20.9418 28.6657 21.6771 28.0464 22.2964C27.427 22.9158 26.6917 23.4071 25.8825 23.7423C25.0732 24.0775 24.2059 24.25 23.33 24.25ZM23.33 13.42C22.5048 13.42 21.6982 13.6649 21.0122 14.1235C20.3262 14.5822 19.7918 15.234 19.4765 15.9966C19.1611 16.7591 19.0791 17.5981 19.2408 18.4072C19.4026 19.2164 19.8007 19.9594 20.3849 20.5422C20.9691 21.125 21.713 21.5214 22.5226 21.6811C23.3322 21.8409 24.1709 21.7569 24.9327 21.4397C25.6945 21.1226 26.3451 20.5866 26.8021 19.8995C27.2591 19.2124 27.502 18.4052 27.5 17.58C27.4973 16.4758 27.0568 15.4177 26.2751 14.6379C25.4933 13.858 24.4342 13.42 23.33 13.42Z" fill="#F5F5F5"/>
<path d="M17.92 13.42C17.7558 13.4187 17.5935 13.3851 17.4424 13.321C17.2912 13.257 17.1542 13.1638 17.039 13.0468C16.9239 12.9298 16.8329 12.7913 16.7713 12.6391C16.7097 12.487 16.6787 12.3242 16.68 12.16L16.76 1.49C16.7626 1.16194 16.8941 0.848058 17.126 0.616077C17.358 0.384096 17.6719 0.252614 18 0.25C18.1641 0.251308 18.3264 0.284937 18.4776 0.348967C18.6287 0.412997 18.7658 0.506173 18.8809 0.623176C18.9961 0.740179 19.0871 0.878717 19.1487 1.03088C19.2103 1.18304 19.2413 1.34585 19.24 1.51L19.16 12.18C19.1548 12.5073 19.0225 12.8197 18.7911 13.0511C18.5596 13.2825 18.2472 13.4148 17.92 13.42Z" fill="#F5F5F5"/>
</svg>
