<svg width="61" height="61" viewBox="0 0 61 61" fill="none" xmlns="http://www.w3.org/2000/svg">
<path d="M9.82999 17.24C10.3823 17.24 10.83 16.7923 10.83 16.24C10.83 15.6877 10.3823 15.24 9.82999 15.24C9.2777 15.24 8.82999 15.6877 8.82999 16.24C8.82999 16.7923 9.2777 17.24 9.82999 17.24Z" fill="#F5F5F5"/>
<path d="M16.5 17.24C17.0523 17.24 17.5 16.7923 17.5 16.24C17.5 15.6877 17.0523 15.24 16.5 15.24C15.9477 15.24 15.5 15.6877 15.5 16.24C15.5 16.7923 15.9477 17.24 16.5 17.24Z" fill="#F5F5F5"/>
<path d="M13.17 17.24C13.7223 17.24 14.17 16.7923 14.17 16.24C14.17 15.6877 13.7223 15.24 13.17 15.24C12.6177 15.24 12.17 15.6877 12.17 16.24C12.17 16.7923 12.6177 17.24 13.17 17.24Z" fill="#F5F5F5"/>
<path d="M20.5 30.75L23.5 27.75C23.6883 27.5617 23.7941 27.3063 23.7941 27.04C23.7941 26.7737 23.6883 26.5183 23.5 26.33C23.3117 26.1417 23.0563 26.0359 22.79 26.0359C22.5237 26.0359 22.2683 26.1417 22.08 26.33L18.36 30.06C18.1738 30.2473 18.0692 30.5008 18.0692 30.765C18.0692 31.0292 18.1738 31.2826 18.36 31.47L22.08 35.2C22.173 35.2937 22.2836 35.3681 22.4054 35.4189C22.5273 35.4696 22.658 35.4958 22.79 35.4958C22.922 35.4958 23.0527 35.4696 23.1746 35.4189C23.2964 35.3681 23.407 35.2937 23.5 35.2C23.6863 35.0126 23.7908 34.7592 23.7908 34.495C23.7908 34.2308 23.6863 33.9773 23.5 33.79L20.5 30.75Z" fill="#F5F5F5"/>
<path d="M34.82 35.18C35.0074 35.3663 35.2608 35.4708 35.525 35.4708C35.7892 35.4708 36.0426 35.3663 36.23 35.18L39.96 31.5C40.1463 31.3127 40.2508 31.0592 40.2508 30.795C40.2508 30.5308 40.1463 30.2774 39.96 30.09L36.23 26.36C36.0417 26.173 35.7868 26.0685 35.5215 26.0695C35.2561 26.0704 35.002 26.1767 34.815 26.365C34.628 26.5533 34.5235 26.8082 34.5245 27.0736C34.5254 27.3389 34.6317 27.593 34.82 27.78L37.82 30.78L34.82 33.78C34.6368 33.9669 34.5341 34.2183 34.5341 34.48C34.5341 34.7418 34.6368 34.9931 34.82 35.18Z" fill="#F5F5F5"/>
<path d="M31.5 26.65C31.3859 26.5838 31.2598 26.541 31.129 26.5238C30.9982 26.5066 30.8653 26.5155 30.738 26.5498C30.6106 26.5842 30.4914 26.6435 30.387 26.7242C30.2827 26.8049 30.1953 26.9054 30.13 27.02L26.44 33.5C26.3676 33.6138 26.3191 33.7411 26.2972 33.8741C26.2753 34.0072 26.2805 34.1434 26.3126 34.2744C26.3447 34.4054 26.403 34.5285 26.4839 34.6364C26.5648 34.7443 26.6667 34.8347 26.7835 34.9022C26.9002 34.9697 27.0294 35.0129 27.1633 35.0291C27.2972 35.0454 27.433 35.0344 27.5625 34.9968C27.6921 34.9593 27.8126 34.8959 27.917 34.8105C28.0214 34.7251 28.1075 34.6195 28.17 34.5L31.9 28.05C31.9698 27.9328 32.0148 27.8026 32.0324 27.6674C32.05 27.5321 32.0398 27.3947 32.0023 27.2636C31.9649 27.1325 31.901 27.0104 31.8146 26.9049C31.7282 26.7993 31.6211 26.7126 31.5 26.65Z" fill="#F5F5F5"/>
<path d="M56.36 40.5C56.301 40.4995 56.2436 40.4811 56.1953 40.4472C56.1471 40.4132 56.1103 40.3654 56.09 40.31C55.6921 39.2633 55.1282 38.2874 54.42 37.42C54.3865 37.3715 54.3685 37.3139 54.3685 37.255C54.3685 37.196 54.3865 37.1385 54.42 37.09C54.7246 36.5621 54.8072 35.9349 54.6497 35.3462C54.4922 34.7575 54.1075 34.2553 53.58 33.95L52.83 33.5V15.24C52.83 14.4443 52.5139 13.6813 51.9513 13.1187C51.3887 12.5561 50.6257 12.24 49.83 12.24H8.5C7.70435 12.24 6.94129 12.5561 6.37868 13.1187C5.81607 13.6813 5.5 14.4443 5.5 15.24V40.58C5.50263 41.1971 5.74896 41.7883 6.18535 42.2246C6.62174 42.661 7.21286 42.9074 7.83 42.91H21.5L20.5 46.61H19.17C18.196 46.6107 17.2507 46.9397 16.4867 47.5439C15.7228 48.1482 15.1849 48.9923 14.96 49.94H12.5C12.2348 49.94 11.9804 50.0453 11.7929 50.2329C11.6054 50.4204 11.5 50.6748 11.5 50.94C11.5 51.2052 11.6054 51.4596 11.7929 51.6471C11.9804 51.8346 12.2348 51.94 12.5 51.94H37.97C37.9531 52.1789 37.9767 52.419 38.04 52.65C38.115 52.9433 38.2484 53.2185 38.4323 53.4591C38.6161 53.6997 38.8466 53.9006 39.11 54.05L41.22 55.27C41.482 55.4204 41.771 55.5177 42.0706 55.5564C42.3702 55.5951 42.6745 55.5743 42.9661 55.4954C43.2576 55.4165 43.5308 55.2809 43.77 55.0963C44.0092 54.9118 44.2097 54.682 44.36 54.42C44.3924 54.369 44.439 54.3285 44.4941 54.3037C44.5492 54.2788 44.6103 54.2706 44.67 54.28C45.7685 54.47 46.8915 54.47 47.99 54.28C48.0508 54.2701 48.1132 54.2792 48.1687 54.3061C48.2241 54.3329 48.27 54.3762 48.3 54.43C48.5038 54.779 48.796 55.0681 49.1471 55.2682C49.4982 55.4684 49.8959 55.5724 50.3 55.57C50.7032 55.5739 51.1001 55.4703 51.45 55.27L53.56 54.05C53.822 53.8988 54.0514 53.6973 54.235 53.457C54.4187 53.2167 54.5529 52.9424 54.63 52.65C54.7096 52.3593 54.7303 52.0556 54.6908 51.7568C54.6513 51.4579 54.5524 51.17 54.4 50.91C54.3656 50.86 54.3472 50.8007 54.3472 50.74C54.3472 50.6793 54.3656 50.62 54.4 50.57C55.106 49.7047 55.6697 48.7325 56.07 47.69C56.0891 47.6338 56.1255 47.5851 56.174 47.551C56.2225 47.5168 56.2807 47.499 56.34 47.5C56.9492 47.4974 57.5327 47.2542 57.9634 46.8234C58.3942 46.3927 58.6374 45.8092 58.64 45.2V42.76C58.6296 42.1604 58.3854 41.5886 57.9595 41.1664C57.5336 40.7442 56.9597 40.5051 56.36 40.5ZM7.5 15.24C7.5 14.9748 7.60536 14.7204 7.79289 14.5329C7.98043 14.3453 8.23478 14.24 8.5 14.24H49.83C50.0952 14.24 50.3496 14.3453 50.5371 14.5329C50.7246 14.7204 50.83 14.9748 50.83 15.24V18.24H7.5V15.24ZM7.83 40.91C7.78666 40.91 7.74375 40.9015 7.70371 40.8849C7.66368 40.8683 7.6273 40.844 7.59665 40.8133C7.56601 40.7827 7.5417 40.7463 7.52512 40.7063C7.50854 40.6662 7.5 40.6233 7.5 40.58V20.24H50.83V32.5C50.3568 32.3743 49.8558 32.4036 49.4004 32.5836C48.9451 32.7636 48.5594 33.0847 48.3 33.5C48.2689 33.5493 48.2236 33.5881 48.1701 33.6113C48.1165 33.6345 48.0573 33.641 48 33.63C46.9007 33.4499 45.7793 33.4499 44.68 33.63C44.6227 33.6425 44.5629 33.6367 44.5091 33.6133C44.4552 33.59 44.4101 33.5504 44.38 33.5C44.2298 33.2378 44.0292 33.008 43.7897 32.8237C43.5503 32.6395 43.2768 32.5044 42.9849 32.4263C42.693 32.3482 42.3886 32.3287 42.0891 32.3688C41.7896 32.4089 41.501 32.5079 41.24 32.66L39.13 33.88C38.8673 34.0278 38.6371 34.2271 38.4533 34.4659C38.2694 34.7047 38.1357 34.9782 38.06 35.27C37.9001 35.8595 37.9791 36.4884 38.28 37.02C38.3165 37.0673 38.3363 37.1253 38.3363 37.185C38.3363 37.2447 38.3165 37.3027 38.28 37.35C37.5718 38.2174 37.0079 39.1933 36.61 40.24C36.5897 40.2954 36.5529 40.3432 36.5047 40.3772C36.4564 40.4111 36.399 40.4295 36.34 40.43C35.8502 40.4307 35.3735 40.5884 34.98 40.88L7.83 40.91ZM34.5 46.61H22.5L23.5 42.91H34V45.2C34.0064 45.7123 34.1822 46.2081 34.5 46.61ZM19.18 48.61H36.98C37.2086 49.071 37.4692 49.5154 37.76 49.94H17.07C17.2588 49.5427 17.5562 49.2069 17.9278 48.9716C18.2995 48.7362 18.7301 48.6108 19.17 48.61H19.18ZM56.66 45.2C56.66 45.2796 56.6284 45.3559 56.5721 45.4121C56.5159 45.4684 56.4396 45.5 56.36 45.5C55.8942 45.5011 55.4396 45.6431 55.0559 45.9072C54.6722 46.1713 54.3774 46.5453 54.21 46.98C53.8904 47.8231 53.438 48.6097 52.87 49.31C52.5771 49.6718 52.4004 50.1136 52.3629 50.5775C52.3254 51.0415 52.429 51.5059 52.66 51.91C52.6761 51.9444 52.6844 51.982 52.6844 52.02C52.6844 52.058 52.6761 52.0955 52.66 52.13C52.6513 52.1697 52.6343 52.2071 52.6102 52.2399C52.5861 52.2726 52.5554 52.2999 52.52 52.32L50.44 53.5C50.4053 53.5193 50.367 53.5315 50.3275 53.536C50.288 53.5404 50.2481 53.5369 50.2099 53.5257C50.1718 53.5146 50.1362 53.4959 50.1053 53.4709C50.0744 53.4459 50.0488 53.415 50.03 53.38C49.7936 52.977 49.4405 52.6552 49.0174 52.457C48.5942 52.2588 48.121 52.1936 47.66 52.27C46.7797 52.42 45.8803 52.42 45 52.27C44.538 52.1945 44.064 52.2613 43.6408 52.4613C43.2175 52.6613 42.865 52.9852 42.63 53.39C42.5885 53.457 42.523 53.5057 42.4468 53.5262C42.3706 53.5466 42.2895 53.5373 42.22 53.5L40.11 52.28C40.0746 52.2599 40.0439 52.2326 40.0198 52.1999C39.9957 52.1671 39.9787 52.1297 39.97 52.09C39.9539 52.0555 39.9456 52.018 39.9456 51.98C39.9456 51.942 39.9539 51.9044 39.97 51.87C40.1983 51.4651 40.3004 51.0012 40.2629 50.5378C40.2255 50.0745 40.0504 49.633 39.76 49.27C39.1869 48.5715 38.731 47.7846 38.41 46.94C38.2423 46.5167 37.9517 46.1534 37.5756 45.8967C37.1996 45.6401 36.7553 45.5019 36.3 45.5C36.2204 45.5 36.1441 45.4684 36.0879 45.4121C36.0316 45.3559 36 45.2796 36 45.2V42.76C35.9986 42.7202 36.0054 42.6806 36.02 42.6436C36.0346 42.6065 36.0566 42.5729 36.0848 42.5448C36.1129 42.5166 36.1465 42.4946 36.1836 42.48C36.2206 42.4654 36.2602 42.4586 36.3 42.46C36.7644 42.4582 37.2174 42.3159 37.5994 42.0517C37.9814 41.7875 38.2744 41.4139 38.44 40.98C38.7587 40.1343 39.2148 39.3471 39.79 38.65C40.0804 38.287 40.2555 37.8455 40.2929 37.3821C40.3304 36.9188 40.2283 36.4549 40 36.05C39.9837 36.0138 39.9753 35.9746 39.9753 35.935C39.9753 35.8953 39.9837 35.8561 40 35.82C40.0081 35.7813 40.025 35.745 40.0492 35.7138C40.0735 35.6826 40.1045 35.6574 40.14 35.64L42.25 34.42C42.2991 34.4063 42.3509 34.4063 42.4 34.42C42.45 34.4206 42.4991 34.4338 42.5428 34.4582C42.5865 34.4827 42.6233 34.5177 42.65 34.56C42.8861 34.9639 43.2387 35.2869 43.6617 35.4868C44.0846 35.6867 44.5581 35.754 45.02 35.68C45.9003 35.53 46.7997 35.53 47.68 35.68C48.145 35.7428 48.6181 35.6637 49.0374 35.4532C49.4567 35.2426 49.8026 34.9104 50.03 34.5C50.0495 34.467 50.0755 34.4382 50.1062 34.4153C50.1369 34.3924 50.1719 34.3758 50.2091 34.3665C50.2463 34.3572 50.285 34.3554 50.3229 34.3611C50.3608 34.3669 50.3972 34.3801 50.43 34.4L52.54 35.62C52.5755 35.6374 52.6065 35.6626 52.6308 35.6938C52.655 35.725 52.6719 35.7613 52.68 35.8C52.6963 35.8361 52.7047 35.8753 52.7047 35.915C52.7047 35.9546 52.6963 35.9938 52.68 36.03C52.4498 36.4326 52.3467 36.8953 52.3842 37.3575C52.4217 37.8197 52.598 38.2598 52.89 38.62C53.4582 39.3238 53.9105 40.1137 54.23 40.96C54.3876 41.402 54.6756 41.7858 55.0559 42.0607C55.4362 42.3357 55.8909 42.4888 56.36 42.5C56.3998 42.4986 56.4394 42.5054 56.4764 42.52C56.5135 42.5346 56.5471 42.5566 56.5752 42.5847C56.6034 42.6129 56.6254 42.6465 56.64 42.6836C56.6546 42.7206 56.6614 42.7602 56.66 42.8V45.2Z" fill="#F5F5F5"/>
<path d="M46.33 39.4399C45.4321 39.4399 44.5543 39.7062 43.8077 40.2051C43.0611 40.7039 42.4792 41.413 42.1356 42.2426C41.792 43.0721 41.7021 43.985 41.8772 44.8657C42.0524 45.7463 42.4848 46.5553 43.1197 47.1902C43.7547 47.8251 44.5636 48.2575 45.4443 48.4327C46.325 48.6079 47.2378 48.518 48.0674 48.1744C48.897 47.8307 49.606 47.2488 50.1049 46.5022C50.6037 45.7556 50.87 44.8779 50.87 43.9799C50.87 42.7759 50.3917 41.6211 49.5403 40.7697C48.6889 39.9183 47.5341 39.4399 46.33 39.4399ZM46.33 46.5199C45.8276 46.5199 45.3366 46.371 44.9189 46.0919C44.5012 45.8128 44.1756 45.4161 43.9834 44.952C43.7911 44.4878 43.7408 43.9771 43.8388 43.4844C43.9368 42.9917 44.1787 42.5391 44.534 42.1839C44.8892 41.8287 45.3418 41.5868 45.8345 41.4887C46.3272 41.3907 46.8379 41.441 47.302 41.6333C47.7662 41.8255 48.1628 42.1511 48.4419 42.5688C48.721 42.9865 48.87 43.4776 48.87 43.9799C48.8647 44.6501 48.5948 45.2911 48.119 45.7631C47.6433 46.2351 47.0002 46.5 46.33 46.4999V46.5199Z" fill="#F5F5F5"/>
</svg>
